<svg viewBox="0 0 152.151 176.345" xmlns="http://www.w3.org/2000/svg">
  <defs>
    <linearGradient gradientUnits="userSpaceOnUse" x1="640.323" y1="78.151" x2="640.323" y2="253.151" id="A" gradientTransform="matrix(0.887486, 0.460834, -0.55914, 1.076805, 142.086563, -276.891541)">
      <stop offset="0" stop-color="#597493"></stop>
      <stop offset="1" stop-color="rgba(5, 6, 6, 1)"></stop>
    </linearGradient>
  </defs>
  <g transform="matrix(1, 0, 0, 1, -564.322998, -77.651001)">
    <path d="M640.323 78.151l75 43.75v87.5l-75 43.75-75-43.75v-87.5z" fill="url(#A)"></path>
    <path d="M617.528 216.194l49.833-91.5.212-.393-.772-.43-.213.39-49.831 91.5-.214.393.773.43.212-.39zm26.46 0l49.83-91.5.214-.393-.771-.43-.214.39-49.831 91.5-.213.393.773.43.212-.39zm-42.762 12.026l48.507-103.551.189-.404-.796-.381-.19.402-48.508 103.553-.19.402.798.383.19-.404zm71.38-11.189l-77.614-94.625-.281-.342-.679.57.281.342 77.613 94.625.282.344.679-.57-.281-.344zm15.897-13.36L614.418 95.656l-.251-.366-.725.509.251.367 74.085 108.015.253.365.725-.507-.253-.368z" fill-rule="evenodd" style="mix-blend-mode:screen" fill="#fff"></path>
    <path d="M 633.502 127.572 L 633.502 144.327 L 622.491 144.327 L 622.491 129.327 C 622.493 128.899 622.477 128.47 622.445 128.042 C 622.336 126.645 622.033 125.716 621.534 125.258 C 621.326 125.078 621.089 124.932 620.832 124.833 C 620.096 124.533 619.008 124.383 617.567 124.38 C 617.559 124.38 617.552 124.38 617.544 124.38 L 608.768 124.38 C 608.34 124.38 607.911 124.393 607.483 124.422 C 606.215 124.514 605.334 124.752 604.839 125.135 C 604.79 125.173 604.743 125.215 604.699 125.258 C 604.52 125.448 604.38 125.67 604.285 125.91 C 603.998 126.59 603.845 127.623 603.824 129.005 C 603.823 129.113 603.821 129.22 603.821 129.327 L 603.821 200.018 C 603.819 200.429 603.834 200.837 603.863 201.246 C 603.963 202.589 604.241 203.51 604.699 204.008 C 605.265 204.627 606.556 204.946 608.568 204.965 C 608.635 204.967 608.701 204.967 608.768 204.965 L 617.544 204.965 C 619.017 204.965 620.123 204.796 620.862 204.458 C 621.111 204.349 621.339 204.198 621.534 204.008 C 621.741 203.791 621.907 203.535 622.019 203.256 C 622.333 202.519 622.491 201.44 622.491 200.018 L 622.491 185.018 L 633.502 185.018 L 633.502 201.774 C 633.526 203.457 633.317 205.138 632.878 206.762 C 631.809 210.493 629.371 212.853 625.565 213.842 C 624.038 214.219 622.469 214.399 620.896 214.38 L 605.417 214.38 C 603.733 214.406 602.055 214.195 600.429 213.756 C 596.699 212.687 594.339 210.25 593.348 206.443 C 592.972 204.916 592.791 203.347 592.81 201.774 L 592.81 127.572 C 592.787 125.888 592.997 124.209 593.436 122.583 C 594.504 118.854 596.942 116.494 600.749 115.503 C 602.276 115.128 603.845 114.946 605.417 114.965 L 620.896 114.965 C 622.579 114.941 624.258 115.152 625.884 115.591 C 629.613 116.66 631.973 119.097 632.964 122.904 C 633.341 124.431 633.521 126 633.502 127.572 Z M 648.661 214.221 L 648.661 114.965 L 680.098 114.965 C 681.781 114.941 683.46 115.152 685.086 115.591 C 688.815 116.66 691.175 119.097 692.166 122.904 C 692.543 124.431 692.723 126 692.704 127.572 L 692.704 201.614 C 692.728 203.298 692.519 204.978 692.08 206.602 C 691.011 210.333 688.573 212.693 684.767 213.683 C 683.24 214.059 681.671 214.24 680.098 214.221 L 648.661 214.221 Z M 681.693 199.859 L 681.693 129.327 C 681.695 128.899 681.679 128.47 681.647 128.042 C 681.539 126.645 681.235 125.716 680.736 125.258 C 680.528 125.078 680.291 124.932 680.034 124.833 C 679.298 124.533 678.21 124.383 676.769 124.38 C 676.761 124.38 676.755 124.38 676.747 124.38 L 659.672 124.38 L 659.672 204.806 L 676.747 204.806 C 677.157 204.807 677.565 204.794 677.974 204.764 C 679.316 204.665 680.236 204.386 680.736 203.928 C 681.353 203.363 681.673 202.072 681.693 200.058 C 681.693 199.993 681.693 199.926 681.693 199.859 Z" vector-effect="non-scaling-stroke" stroke-linecap="round" fill-rule="evenodd" font-size="9pt" stroke-width="0.25mm" style="stroke-width: 0.25mm; fill: rgb(255, 255, 255);"></path>
  </g>
</svg>